<svg xmlns="http://www.w3.org/2000/svg" viewBox="0 0 96 64" enable-background="new 0 0 96 64"><g><defs><filter id="a" filterUnits="userSpaceOnUse" x="0" y="0" width="96" height="64"><feColorMatrix values="1 0 0 0 0 0 1 0 0 0 0 0 1 0 0 0 0 0 1 0"/></filter></defs><mask maskUnits="userSpaceOnUse" x="0" y="0" width="96" height="64" id="b"><path fill="#FFF" d="M5 0h86a5 5 0 0 1 5 5v54a5 5 0 0 1-5 5H5a5 5 0 0 1-5-5V5a5 5 0 0 1 5-5z" filter="url(#a)"/></mask><g mask="url(#b)"><path fill="#EB6F93" d="M0 0h96v64H0z"/></g></g><g fill="#FFF"><path d="M30.204 44h-2.855c0 2.332-1.075 4.461-2.945 5.863l-1.126.841 4.379 5.939h3.598l-4.034-5.468A10.023 10.023 0 0 0 30.204 44zM20 44h2.919v12.643H20zM32.099 44h2.753v12.643h-2.753zM59 47.658c-1.05 0-2.049.319-2.714 1.224V47.9h-2.612v8.743h2.65v-4.588c0-1.325.896-1.975 1.972-1.975 1.152 0 1.818.688 1.818 1.963v4.614h2.625v-5.57c-.001-2.04-1.627-3.429-3.739-3.429zM43.174 47.9v.561a4.587 4.587 0 0 0-2.612-.803c-2.561 0-4.635 2.065-4.635 4.614s2.074 4.614 4.635 4.614c.973 0 1.869-.293 2.612-.803v.561h2.625V47.9h-2.625zm-2.394 6.615c-1.319 0-2.381-1.007-2.381-2.243s1.063-2.243 2.381-2.243 2.381 1.007 2.381 2.243-1.062 2.243-2.381 2.243zM49.871 49.034V47.9h-2.689v8.743h2.702v-4.078c0-1.376 1.498-2.116 2.535-2.116h.026V47.9c-1.064 0-2.049.459-2.574 1.134zM70.907 47.9v.561a4.587 4.587 0 0 0-2.612-.803c-2.561 0-4.635 2.065-4.635 4.614s2.074 4.614 4.635 4.614c.973 0 1.869-.293 2.612-.803v.561h2.625V47.9h-2.625zm-2.394 6.615c-1.319 0-2.381-1.007-2.381-2.243s1.063-2.243 2.381-2.243c1.319 0 2.381 1.007 2.381 2.243.013 1.236-1.063 2.243-2.381 2.243zM76.336 53.546c-.909 0-1.652.739-1.652 1.644a1.652 1.652 0 0 0 3.304 0 1.645 1.645 0 0 0-1.652-1.644z"/></g><g fill="#FFF"><path d="M44.551 29.746c.678.667.692 1.754.032 2.438l-.132.139a1.735 1.735 0 0 1-2.439.031l-3.839-3.804c-1.057-1.061-1.209-2.369-.536-3.06l.135-.141a1.566 1.566 0 0 1 2.089-.135.691.691 0 0 0 .855-1.084 2.95 2.95 0 0 0-3.939.262l-.134.141c-1.246 1.28-.996 3.437.555 4.994l3.85 3.814a3.12 3.12 0 0 0 4.399-.06l.136-.142a3.112 3.112 0 0 0-.061-4.377.691.691 0 0 0-.971.984zM42.253 9.122l1.571 12.923a.69.69 0 0 0 1.371-.166L43.62 8.916l-.016-.084c-.269-1.075.4-2.28 1.29-2.47a1.904 1.904 0 0 1 2.266 1.493l2.736 11.691a.69.69 0 0 0 1.345-.314L48.51 7.565a3.284 3.284 0 0 0-3.904-2.553c-1.675.357-2.775 2.319-2.353 4.11z"/><path d="M56.695 24.308l3.107-15.491a3.281 3.281 0 0 0-2.277-3.831 3.428 3.428 0 0 0-4.173 2.429l-3.44 11.787a.69.69 0 0 0 1.327.387l3.444-11.803a2.044 2.044 0 0 1 2.476-1.468c.927.276 1.501 1.246 1.291 2.218l-3.11 15.501a.69.69 0 1 0 1.355.271zM48.869 39.232c-4.925 0-9.039-3.613-9.039-8.747a.69.69 0 0 0-1.382 0c0 5.939 4.769 10.127 10.421 10.127a.69.69 0 1 0 0-1.38zM46.433 27.157a1.705 1.705 0 0 1-.679.951l-.148.098a1.737 1.737 0 0 1-2.406-.462l-3.02-4.495c-.824-1.25-.716-2.566.077-3.11l.148-.098c1.017-.589 1.882-.142 2.77 1.151l2.526 3.76a.69.69 0 0 0 1.148-.77l-2.53-3.766c-1.249-1.819-2.797-2.62-4.644-1.547l-.192.126c-1.485 1.018-1.662 3.184-.453 5.018l3.026 4.503a3.118 3.118 0 0 0 4.319.836l.153-.102a3.093 3.093 0 0 0 1.236-1.725.69.69 0 1 0-1.331-.368z"/><path d="M51.007 29.444c-1.435.801-2.328 2.31-2.439 4.592a.69.69 0 0 0 1.38.067c.1-2.067.904-3.183 2.204-3.672.696-.262 1.452-.314 2.119-.243.09.01.149.018.173.023.89.166 1.16-1.155.277-1.352l-5.312-1.186c-2.487-.68-2.862-1.6-2.401-3.134.199-.668.607-1.011 1.223-1.148.407-.09.863-.079 1.298-.003.126.022.214.043.253.054l8.064 1.882c.053.01.091.021.157.051.133.06.272.157.408.302.541.577.839 1.666.688 3.454-.527 6.269-3.451 10.162-10.379 10.101a.69.69 0 1 0-.012 1.38c7.787.068 11.188-4.46 11.767-11.366.181-2.15-.222-3.623-1.056-4.513-.46-.491-.945-.71-1.317-.765l-7.973-1.862a3.842 3.842 0 0 0-.362-.078c-.598-.105-1.227-.12-1.836.015-1.081.24-1.897.926-2.247 2.101-.665 2.214.045 3.953 3.392 4.868l1.931.432z"/></g></svg>